<svg width="21" height="22" viewBox="0 0 21 22" fill="none" xmlns="http://www.w3.org/2000/svg">
<path d="M5.5 20.75H16.375H18.175C19.075 20.75 19.75 20.075 19.75 19.25C19.75 19.175 19.75 19.175 19.75 19.1L18.4 4.1C18.325 3.35 17.65 2.75 16.825 2.75" stroke="#1EA59A" stroke-width="2" stroke-linecap="round" stroke-linejoin="round"/>
<path fill-rule="evenodd" clip-rule="evenodd" d="M3.85 2.75H16.75C17.575 2.75 18.25 3.425 18.25 4.25C18.25 4.325 18.25 4.325 18.25 4.4L16.9 19.4C16.825 20.15 16.15 20.75 15.4 20.75H2.5C1.675 20.75 1 20.075 1 19.25C1 19.175 1 19.175 1 19.1L2.35 4.1C2.425 3.35 3.025 2.75 3.85 2.75Z" stroke="#1EA59A" stroke-width="2" stroke-linecap="round" stroke-linejoin="round"/>
<path d="M7.75 16.625H10.9" stroke="#1EA59A" stroke-width="2" stroke-linecap="round" stroke-linejoin="round"/>
<path d="M7 10.775L8.35 12.875L12.625 8.59998" stroke="#1EA59A" stroke-width="2" stroke-linecap="round" stroke-linejoin="round"/>
<path d="M7 5C6.55 5 6.25 4.625 6.25 4.175V2.075C6.25 1.625 6.55 1.25 7 1.25C7.45 1.25 7.75 1.625 7.75 2.075" stroke="#1EA59A" stroke-width="2" stroke-linecap="round" stroke-linejoin="round"/>
<path d="M13 5C12.55 5 12.25 4.625 12.25 4.175V2.075C12.25 1.625 12.55 1.25 13 1.25C13.45 1.25 13.75 1.625 13.75 2.075" stroke="#1EA59A" stroke-width="2" stroke-linecap="round" stroke-linejoin="round"/>
</svg>
